<svg xmlns="http://www.w3.org/2000/svg" viewBox="0 0 972 968">
<path d="M930.84 382.89C926.15 386.12 918.71 384.27 913.13 384.84C899.85 386.21 885.76 386.08 872.41 385.47C867.96 385.27 863.6 384.49 859.13 384.48C853.72 384.47 839.61 385.69 835.41 382.23C831.49 378.98 830.88 374.46 828.92 370.16C827.84 367.79 825.99 365.8 825.1 363.35C824.41 361.47 824.46 359.4 823.76 357.53C823 355.5 821.12 354.18 820.32 352.15C818.17 346.63 816.61 340.82 814.01 335.46C813.25 333.9 811.87 332.85 810.97 331.4C809.74 329.42 809.68 326.99 808.62 324.92C807.73 323.2 806.14 321.99 805.34 320.2C804.58 318.5 804.45 316.59 803.6 314.91C802.83 313.39 801.43 312.32 800.63 310.85C799.63 308.99 799.63 306.77 798.52 304.96C797.62 303.48 795.96 302.74 795.07 301.27C794.1 299.69 794.13 297.71 793.21 296.09C791 292.21 787.63 289.05 785.35 285.33C784.41 283.79 784.25 281.9 783.27 280.36C781.18 277.11 777.75 273.58 775.41 270.51C774.33 269.1 774.12 267.22 773.07 265.77C770.63 262.4 767.24 259.63 764.76 256.38C763.95 255.32 763.75 253.96 762.97 252.88C760.83 249.9 757.9 247.22 755.5 244.4C752.66 241.07 750.39 237.12 747.3 233.99C743.06 229.69 738.48 225.69 734.18 221.44C731.54 218.84 729.34 215.61 726.49 213.21C722.97 210.24 718.53 208.24 715.08 205.12C713.99 204.13 713.43 202.7 712.32 201.71C707.39 197.29 701.69 194.03 696.4 190.18C695.03 189.18 694.22 187.66 692.87 186.65C689.8 184.34 686.15 182.75 683 180.57C681.79 179.73 680.97 178.44 679.75 177.62C678.02 176.45 675.81 176.48 674.11 175.31C672.7 174.34 671.94 172.73 670.47 171.79C666.02 168.94 660.83 167.3 656.19 164.9C654.64 164.1 653.68 162.61 652.1 161.83C647.07 159.34 641.86 157.46 636.69 155.19C634.51 154.23 632.86 152.41 630.67 151.44C628.69 150.55 626.41 150.67 624.46 149.73C622.71 148.88 621.6 147.18 619.73 146.49C617.59 145.7 615.24 145.97 613.12 145.09C611.32 144.34 610.13 142.71 608.36 141.93C605.86 140.84 603 141.02 600.43 140.15C598.13 139.37 596.44 137.46 594.17 136.68C591.73 135.84 589.01 136.04 586.5 135.4C582.48 134.39 578.75 132.32 574.72 131.36C572.53 130.83 570.28 131.14 568.08 130.68C566.33 130.31 565.02 129.05 563.35 128.53C560.43 127.62 557.09 126.88 554.1 126.18C551.69 125.63 549.17 125.93 546.74 125.45C540.48 124.21 534.34 122.35 528.13 120.98C523.47 119.96 518.6 121.04 513.89 120.6C511.47 120.38 509.21 119.49 506.8 119.31C503.88 119.1 500.91 119.82 498 119.32C495.8 118.95 494.04 117.71 491.75 117.53C483.91 116.9 474.8 116.88 466.97 117.67C463.68 118 460.54 119.16 457.23 119.37C449.18 119.89 441.14 119.88 433.11 120.89C429.44 121.35 425.2 121.82 421.65 122.77C420.1 123.18 418.67 124.14 417.08 124.41C412.04 125.25 406.66 125 401.61 125.98C397.62 126.75 393.88 129.05 389.92 130.05C385.56 131.15 380.96 131.24 376.7 132.78C375.04 133.38 373.74 134.67 372.07 135.19C369.84 135.88 367.47 135.72 365.22 136.43C362.22 137.38 359.69 139.39 356.77 140.3C354.85 140.91 352.76 140.67 350.87 141.44C348.58 142.36 347.14 144.42 344.81 145.27C342.45 146.12 339.81 145.78 337.46 146.64C335.57 147.34 334.49 149.06 332.72 149.92C330.74 150.88 328.46 150.82 326.44 151.66C324.6 152.42 323.65 154.17 321.96 155.11C320.05 156.16 317.75 155.96 315.82 156.93C314.07 157.79 313.11 159.62 311.33 160.44C309.58 161.24 307.54 161.04 305.83 161.96C304.1 162.89 303.32 164.82 301.56 165.71C299.88 166.57 297.85 166.38 296.21 167.35C294.91 168.12 294.2 169.52 292.94 170.32C291.55 171.2 289.82 171.25 288.42 172.07C287.1 172.84 286.58 174.32 285.38 175.22C283.99 176.26 282.17 176.59 280.74 177.6C277.29 180.03 273.97 182.74 270.46 185.06C268.93 186.07 267.04 186.26 265.46 187.17C263.78 188.14 262.96 189.94 261.44 191.1C258.78 193.11 255.39 194.46 252.92 196.73C251.82 197.74 251.43 199.29 250.3 200.26C248.67 201.68 246.33 202.08 244.63 203.48C240.97 206.47 236.26 209.89 232.94 213.03C230.55 215.29 228.71 218.28 226.19 220.44C223.31 222.9 220.07 224.77 217.35 227.52C214.25 230.66 210.49 233.92 207.84 237.46C207.04 238.52 206.81 239.9 205.96 240.93C205.02 242.08 203.54 242.59 202.54 243.69C197.67 249.03 192.56 254.47 188.03 260.16C185.34 263.53 183.23 267.92 180.68 271.41C178.52 274.35 174.79 277.71 172.46 280.88C169.81 284.48 168.03 288.81 165.51 292.52C164.56 293.92 163.09 294.86 162.22 296.33C161.15 298.13 161.14 300.33 159.98 302.08C157.41 305.95 153.78 310.88 151.76 315.06C150.94 316.77 150.79 318.71 149.99 320.43C149.28 321.98 147.89 323.09 147.04 324.56C145.88 326.59 145.81 329.01 144.7 331.06C143.89 332.55 142.51 333.63 141.72 335.16C140.76 337.04 140.57 339.19 139.7 341.1C138.79 343.06 137.24 344.65 136.5 346.7C135.57 349.23 135.46 351.98 134.5 354.51C133.65 356.76 132.03 358.67 131.33 360.97C130.66 363.16 130.81 365.51 129.93 367.65C128.85 370.31 127.01 372.56 126.17 375.37C125.51 377.62 125.68 379.97 125.18 382.24C124.44 385.62 122.36 388.5 121.46 391.81C120.31 396.11 120.68 400.72 119.8 405.08C118.67 410.69 116.65 416.1 115.81 421.82C114.65 429.79 115.33 438.17 113.73 446.1C112.74 450.97 110.43 468 114.73 470.92C118.47 473.45 129.45 472.11 134.11 472.11C150.64 472.11 167.16 472.11 183.69 472.11C204.34 472.11 225 472.11 245.66 472.11C252.12 472.11 269.31 472.67 274.69 469.89C278.73 467.81 286.45 457.47 288.19 453.32C289.07 451.22 288.72 448.85 289.67 446.79C290.5 445.01 292.37 444.07 293.16 442.24C293.96 440.4 293.67 438.28 294.35 436.4C295.11 434.33 297.16 433.28 298.06 431.33C298.99 429.34 298.99 427.05 299.71 424.99C300.59 422.49 302.61 420.68 303.67 418.28C304.46 416.49 304.4 414.5 305.11 412.71C305.92 410.69 307.88 409.46 308.61 407.39C309.35 405.24 308.94 402.85 310.14 400.84C311.02 399.37 312.57 398.53 313.31 396.93C314.25 394.89 313.89 392.53 314.78 390.45C315.37 389.08 316.52 388.02 317.24 386.71C318.68 384.1 319.26 381.16 320.48 378.45C321.36 376.47 322.74 374.75 323.61 372.77C324.46 370.81 324.68 368.66 325.51 366.71C326.38 364.68 327.98 363.09 328.73 361C329.38 359.19 329.41 357.2 330.15 355.43C330.99 353.41 332.82 352.06 333.55 349.98C334.29 347.89 334.28 345.63 335.17 343.57C336.2 341.17 338.28 339.41 339.23 336.94C339.92 335.16 339.93 333.19 340.65 331.42C341.47 329.37 343.11 327.81 343.87 325.72C344.61 323.66 344.61 321.41 345.59 319.42C346.34 317.91 347.73 316.84 348.46 315.32C349.52 313.13 349.48 310.62 350.38 308.37C351.27 306.13 353.05 304.43 354.01 302.22C354.86 300.25 354.93 298.05 355.78 296.09C356.64 294.07 358.25 292.5 358.98 290.41C359.63 288.59 359.6 286.56 360.54 284.84C361.36 283.34 362.87 282.41 363.74 280.94C364.66 279.37 364.73 277.43 365.75 275.92C366.58 274.69 367.99 274.06 368.82 272.81C369.56 271.7 369.79 270.32 370.66 269.28C371.59 268.16 373.05 267.56 374.1 266.54C376.3 264.39 378.29 261.75 380.63 259.79C386.76 254.68 401.35 249.55 409.43 249.58C413.69 249.6 417.01 251.97 420.98 253.1C423.22 253.74 425.68 253.38 427.83 254.28C429.39 254.93 430.29 256.59 431.71 257.49C433.42 258.57 435.54 258.77 437.24 259.89C443.67 264.09 453 276.98 454.17 284.61C457.09 303.54 453.87 315.61 446.37 332.58C445.05 335.56 444.85 339.16 443.34 341.96C442.41 343.68 440.67 344.7 439.84 346.5C438.84 348.68 439.02 351.2 437.84 353.34C437.02 354.81 435.59 355.84 434.97 357.44C434.16 359.53 434.21 361.84 433.37 363.93C432.41 366.33 430.46 368.23 429.64 370.71C428.93 372.85 429.18 375.27 428.19 377.33C427.36 379.07 425.54 380.03 424.71 381.82C423.48 384.46 423.8 387.59 422.56 390.23C421.82 391.8 420.34 392.82 419.59 394.38C416.95 399.83 415.16 405.84 412.79 411.43C411.94 413.43 410.27 414.96 409.45 416.97C408.61 419.03 408.71 421.31 407.85 423.37C405.39 429.26 402.19 434.92 399.64 440.77C398.7 442.92 398.37 445.28 397.36 447.39C396.53 449.12 395.07 450.5 394.33 452.28C393.48 454.36 393.61 456.68 392.74 458.75C391.99 460.52 390.34 461.72 389.53 463.46C388.51 465.65 388.57 468.18 387.63 470.41C386.69 472.62 384.92 474.33 384.01 476.57C383.29 478.34 383.18 480.26 382.5 482.03C381.55 484.5 379.95 486.72 379.08 489.23C378.44 491.11 378.39 493.16 377.63 495C376.9 496.79 375.29 498.01 374.45 499.73C373.39 501.9 373.43 504.42 372.51 506.65C370.06 512.53 366.69 518.09 364.19 523.92C363.32 525.95 363.29 528.21 362.48 530.26C360.48 535.33 357.58 540.06 354.61 544.5C353.45 546.23 353.45 548.41 352.31 550.12C350.96 552.15 343.83 559.75 341.89 560.95C340.51 561.79 338.83 561.87 337.48 562.79C336.45 563.5 335.81 564.62 334.68 565.23C317.58 574.41 293.59 573.06 274.87 571.59C268.18 571.06 261.22 571.61 254.51 571.61C240.34 571.61 226.18 571.61 212.02 571.61C174.27 571.61 136.45 570.93 98.7 571.47C95.12 571.52 91.65 572.39 88.08 572.54C80.44 572.85 72.72 572.53 65.07 572.53C55.27 572.53 44.58 573.74 34.94 572.01C32.55 571.58 29.43 571.87 27.27 570.66C22.16 567.79 17.21 556.53 16.28 550.88C15.71 547.42 16.14 543.92 15.89 540.44C15.62 536.56 14.41 532.79 14.01 528.93C13.71 525.99 14.27 523.03 14.05 520.08C13.86 517.56 12.39 515.51 12.13 513C11.38 505.82 12.17 498.1 12.17 490.87C12.17 480.02 11.5 468.94 12.18 458.11C12.74 449.24 14.97 440.38 15.87 431.56C16.46 425.64 15.83 419.79 16.88 413.85C17.62 409.66 19.95 405.88 20.73 401.7C21.55 397.28 21.09 392.64 22 388.18C22.8 384.24 25.05 380.65 25.71 376.67C26.15 374.01 25.86 371.36 26.59 368.73C27.27 366.3 28.87 364.36 29.59 361.95C30.66 358.4 30.54 354.45 31.76 350.98C32.72 348.23 34.49 345.86 35.44 343.04C36.26 340.62 36.07 338.05 36.84 335.66C37.57 333.36 39.26 331.41 40.15 329.14C41.11 326.7 41.35 324.06 42.3 321.65C43.1 319.6 44.73 318.03 45.54 315.98C46.54 313.46 46.48 310.65 47.42 308.11C48.11 306.23 49.76 305.06 50.58 303.25C53.07 297.77 54.8 291.74 57.41 286.3C58.25 284.56 59.86 283.38 60.77 281.68C61.78 279.78 61.78 277.56 62.76 275.67C63.55 274.16 64.95 273.07 65.8 271.59C68.19 267.43 69.87 262.79 72.29 258.65C73.16 257.17 74.69 256.25 75.53 254.77C76.44 253.17 76.48 251.21 77.49 249.66C78.41 248.23 80.07 247.53 80.93 246.02C81.87 244.36 81.86 242.36 82.72 240.67C84.52 237.13 88.38 234.24 90.55 230.84C91.65 229.11 91.74 226.9 92.89 225.24C93.74 224 95.23 223.49 96.14 222.3C96.95 221.24 97.22 219.88 97.94 218.78C100.47 214.92 103.64 211.44 106.5 207.86C108.86 204.91 110.37 201.16 112.85 198.27C115.26 195.45 118.58 193.28 120.91 190.41C123.7 186.98 125.57 182.77 128.55 179.41C132.39 175.08 137.36 171.7 141.03 167.15C142.01 165.94 142.24 164.32 143.22 163.12C144.14 162 145.6 161.36 146.65 160.37C149.06 158.07 151.12 155.27 153.53 153.08C155.98 150.86 159.2 149.34 161.63 147.03C164.33 144.46 166.49 141.21 169.21 138.68C172.38 135.73 176.39 133.45 179.71 130.59C184.44 126.51 188.89 121.9 193.79 118.1C197.27 115.42 201.57 113.54 205.18 110.92C206.57 109.92 207.34 108.37 208.68 107.33C211.92 104.84 215.77 103.2 219.16 100.97C220.75 99.93 221.85 98.34 223.44 97.31C227.04 94.99 231.05 93.14 234.56 90.71C235.95 89.75 236.93 88.3 238.43 87.49C240.07 86.61 241.99 86.53 243.57 85.52C247.59 82.96 251.6 79.63 255.97 77.58C257.67 76.78 259.64 76.73 261.29 75.78C262.92 74.83 263.69 72.86 265.42 72.08C267.21 71.27 269.26 71.44 271.02 70.47C272.51 69.64 273.39 68.08 274.91 67.28C276.6 66.39 278.61 66.43 280.39 65.76C282.46 64.98 284.04 63.35 286.08 62.54C287.85 61.84 289.78 61.66 291.55 60.93C294.15 59.86 296.27 57.8 298.91 56.85C300.8 56.17 302.86 56.17 304.75 55.48C306.81 54.72 308.07 52.8 310.17 52.04C312.12 51.34 314.26 51.61 316.24 51.03C319.2 50.17 321.48 47.77 324.42 46.8C326.9 45.98 329.57 46.44 332.06 45.63C334.59 44.8 336.65 42.95 339.23 42.16C341.89 41.34 344.71 41.31 347.39 40.57C351.37 39.47 355.15 37.49 359.19 36.65C361.78 36.11 364.47 36.3 367.05 35.67C371.2 34.65 375.06 32.58 379.22 31.61C381.88 30.99 384.59 31.33 387.27 30.89C391.62 30.18 396.32 29.53 400.61 28.52C403.31 27.88 405.74 26.69 408.51 26.27C412.33 25.69 416.21 26.14 420.05 25.89C427.42 25.42 434.81 24.55 442.18 24.05C445.78 23.81 449.2 22.49 452.8 22.27C460.7 21.76 468.79 22.29 476.7 22.28C484.89 22.27 493.33 21.66 501.49 22.15C504.03 22.3 506.06 23.81 508.57 24.09C511.78 24.46 515.09 23.91 518.31 24.1C525.76 24.54 533.29 25.41 540.68 26.16C548.52 26.96 555.9 29.37 563.55 30.73C567.87 31.5 572.38 31.19 576.74 31.95C580.7 32.64 584.29 34.65 588.17 35.62C590.79 36.27 593.52 35.92 596.16 36.5C600.44 37.42 604.31 39.82 608.51 40.96C610.97 41.62 613.57 41.4 616.04 42.11C618.84 42.92 621.08 44.93 623.84 45.77C626.5 46.58 629.34 46.52 632 47.41C634.54 48.26 636.61 50.1 639.16 50.88C641.1 51.47 643.19 51.31 645.1 51.98C647.2 52.71 648.47 54.6 650.51 55.41C652.87 56.34 655.52 56.27 657.94 57C660.48 57.76 662.32 59.75 664.77 60.66C666.58 61.33 668.64 61.29 670.38 62.17C672.12 63.05 673.08 64.88 674.91 65.67C676.95 66.55 679.3 66.15 681.33 67.11C683.09 67.95 684.11 69.71 685.82 70.63C687.67 71.62 689.84 71.73 691.7 72.71C693.22 73.51 694.33 74.89 695.92 75.58C697.65 76.34 699.68 76.26 701.31 77.28C702.76 78.19 703.45 79.87 704.97 80.71C706.66 81.65 708.73 81.37 710.41 82.28C712.12 83.2 712.94 85.11 714.6 86.13C718.11 88.29 723.46 90.33 726.75 92.55C727.98 93.38 728.64 94.81 729.89 95.63C731.72 96.82 734.06 96.39 735.86 97.6C739.21 99.85 741.83 103.65 745.24 105.89C746.8 106.91 748.76 106.93 750.3 107.95C751.4 108.67 751.85 109.88 752.8 110.75C754.74 112.53 757.2 114.13 759.26 115.84C761.47 117.66 764.41 120.06 766.88 121.48C768.21 122.24 769.87 122.47 771.05 123.5C772.17 124.47 772.64 125.99 773.75 127C776.98 129.96 780.47 132.66 783.67 135.65C784.94 136.84 786.66 137.3 787.96 138.46C792.3 142.32 795.77 147.25 800.23 150.97C803.63 153.82 808.06 156.36 811.02 159.64C812.62 161.42 813.11 163.89 814.77 165.64C817.32 168.36 820.52 170.56 823.05 173.28C827.06 177.6 830.57 182.48 834.15 187.01C834.94 188 836.13 188.54 836.97 189.48C841.57 194.62 845.29 200.72 849.67 206.02C850.61 207.15 852.04 207.74 852.9 208.94C853.68 210.03 853.88 211.41 854.69 212.48C855.46 213.48 856.68 214.02 857.42 215.04C858.62 216.71 858.64 218.93 859.84 220.63C862.11 223.84 865 226.71 867.28 229.96C868.47 231.64 868.67 233.76 869.74 235.51C872.05 239.29 875 242.69 877.35 246.44C880.15 250.89 882.17 255.83 884.68 260.42C885.61 262.1 887.37 263.14 888.2 264.86C889.03 266.6 888.82 268.66 889.69 270.38C890.67 272.3 892.95 273.11 893.71 275.16C894.34 276.84 894.05 278.73 894.72 280.39C895.45 282.24 897.29 283.18 898.18 284.9C899.29 287.02 899.01 289.54 900.35 291.58C901.28 292.98 902.89 293.85 903.5 295.48C904.3 297.64 904.03 299.99 904.9 302.15C907.34 308.24 911.12 313.99 913.41 320.14C914.22 322.3 914.07 324.66 914.79 326.85C915.54 329.13 917.18 331.04 918.02 333.3C918.98 335.89 918.84 338.67 919.62 341.29C920.33 343.68 921.96 345.6 922.86 347.9C923.96 350.72 923.99 353.7 924.71 356.61C925.78 360.95 927.92 364.97 929 369.29C929.6 371.71 929.26 374.18 929.74 376.6C930.22 379.05 931.34 380.29 930.84 382.89ZM50.54 659.95C56.96 657.24 69.32 658.82 76.57 658.83C90.74 658.84 104.91 659 119.07 658.96C130.26 658.93 140.46 658.26 149.99 664.85C155.82 668.89 161.38 674.85 164.9 680.97C165.68 682.32 166.02 683.85 166.89 685.17C169.3 688.83 172.83 691.8 175.32 695.33C176.23 696.62 176.4 698.26 177.31 699.55C181.96 706.19 187.27 712.72 192.45 718.92C214.14 744.91 238.55 768.96 265.71 789.07C267.13 790.12 268.87 790.51 270.31 791.51C271.88 792.59 272.95 794.23 274.59 795.26C278.18 797.51 282.3 799.32 285.73 801.78C286.95 802.66 287.79 803.88 289.11 804.65C290.7 805.57 292.58 805.72 294.17 806.63C295.48 807.38 296.27 808.66 297.48 809.52C299.15 810.7 301.27 810.9 303.01 811.96C304.29 812.74 305.19 813.99 306.56 814.64C308.52 815.58 310.81 815.34 312.74 816.4C314.24 817.23 315.13 818.77 316.66 819.56C318.57 820.56 320.86 820.38 322.76 821.41C324.47 822.33 325.44 824.08 327.26 824.86C329.27 825.71 331.55 825.71 333.59 826.5C336.03 827.45 338.01 829.36 340.52 830.17C342.71 830.87 345.08 830.72 347.25 831.52C349.47 832.34 350.75 834.57 353.03 835.3C355.48 836.08 358.14 836.05 360.61 836.78C364.3 837.87 367.82 839.79 371.58 840.66C373.86 841.19 376.22 841.08 378.47 841.77C381.5 842.7 384.24 844.59 387.34 845.3C391.47 846.25 395.84 845.98 400.01 846.78C405.54 847.83 410.88 849.89 416.51 850.76C420 851.3 423.6 850.92 427.13 851.4C431.89 852.05 436.61 853.46 441.38 853.93C454.86 855.25 468.46 855.03 482.02 855.03C495.59 855.03 509.2 855.27 522.72 854.04C524.93 853.84 526.75 852.5 528.93 852.23C535.31 851.42 542.03 851.68 548.38 850.62C552.33 849.96 555.94 847.81 559.84 846.93C564.76 845.82 569.91 845.79 574.76 844.21C577.08 843.46 578.9 841.86 581.32 841.28C583.88 840.66 586.55 840.76 589.08 840.02C592.12 839.13 594.72 837.12 597.72 836.23C599.72 835.63 601.87 835.9 603.85 835.27C606.1 834.56 607.7 832.54 609.92 831.7C612.51 830.72 615.36 830.86 617.94 829.92C619.6 829.31 620.66 827.98 622.13 827.09C624.15 825.88 626.58 825.79 628.65 824.68C630.13 823.88 631.22 822.51 632.73 821.75C634.76 820.72 637.08 821 639.15 820.15C640.97 819.4 641.81 817.53 643.47 816.58C645.38 815.49 647.69 815.74 649.62 814.74C651.36 813.84 652.13 811.88 653.87 810.98C655.56 810.1 657.57 810.24 659.25 809.31C663.04 807.21 666.35 803.82 670.08 801.56C671.46 800.72 673.11 800.52 674.53 799.77C676.28 798.86 677.11 797.06 678.74 796.04C680.1 795.19 681.78 795.08 683.15 794.25C686.06 792.51 693.86 786.75 696.38 784.46C697.47 783.48 698.12 782.07 699.3 781.19C702.84 778.55 707.14 776.7 710.74 774.04C714.79 771.04 720.2 764.53 724.19 760.93C726.81 758.57 730.28 757.03 732.84 754.52C737.62 749.84 743.27 744.29 747.72 739.31C748.75 738.16 749.06 736.6 750.05 735.43C752.16 732.92 755.03 730.9 757.28 728.5C760.77 724.76 764.21 720.5 767.43 716.49C768.67 714.94 769.02 712.92 770.22 711.39C771.01 710.37 772.23 709.87 773.06 708.9C773.92 707.89 774.24 706.57 775.01 705.51C777.45 702.15 780.48 699.14 782.98 695.77C785.65 692.18 787.39 687.81 789.95 684.13C791.02 682.57 792.7 681.54 793.54 679.8C794.36 678.13 794.43 676.21 795.46 674.61C796.25 673.37 797.53 672.54 798.31 671.27C801.05 666.84 802.83 661.74 805.54 657.27C806.42 655.83 807.93 654.87 808.64 653.33C809.44 651.59 809.53 649.59 810.32 647.82C811.3 645.67 812.91 643.85 813.87 641.67C816.28 636.18 818.25 630.6 820.18 624.95C821.18 622.01 823.26 619.58 824.18 616.55C824.79 614.53 824.55 612.43 825.08 610.41C825.72 608 828.37 607.13 829.16 604.83C830.13 602.01 829.37 598.8 829.97 595.9C830.41 593.79 831.86 592.44 832.56 590.49C833.92 586.71 834.08 580.74 833.91 576.74C833.65 570.75 827.18 572.53 822.84 572.53C811.62 572.54 800.41 572.53 789.2 572.53C762.04 572.53 734.95 571.61 707.75 571.61C700.34 571.61 692.87 571.21 685.46 571.44C676.88 571.71 668.53 572.76 659.95 571.12C656.23 570.4 653.15 568.32 649.62 567.11C647.98 566.54 646.19 566.61 644.58 566.02C642.69 565.34 641.65 563.66 640.04 562.57C632.75 557.6 628.16 553.17 623.49 545.5C622.53 543.91 622.39 541.99 621.57 540.34C620.71 538.62 619.11 537.39 618.34 535.63C617.54 533.82 617.48 531.78 616.86 529.91C616.17 527.82 614.58 526.28 613.72 524.3C612.85 522.29 612.87 520.04 612.02 518.03C611.09 515.83 609.24 514.18 608.28 512.01C607.17 509.49 607.61 506.6 606.53 504.11C605.73 502.27 603.87 501.33 603.03 499.55C602.15 497.7 602.42 495.57 601.8 493.65C601.11 491.52 599.14 490.3 598.27 488.3C597.27 486.03 597.74 483.37 596.85 481.04C596.11 479.08 594.51 478.13 593.42 476.44C592.08 474.36 592.24 471.87 591.52 469.59C590.8 467.29 588.92 466.28 587.84 464.25C586.77 462.23 587.19 459.87 586.39 457.78C585.68 455.9 583.78 455.04 582.92 453.3C581.61 450.62 582.23 447.64 580.5 445.05C578.68 442.34 575.55 438.5 571.88 440.45C569.8 441.55 570.19 444.27 569.63 446.16C568.99 448.32 567.06 449.53 566.19 451.54C565.28 453.61 565.69 455.98 564.73 458.02C563.99 459.58 562.44 460.47 561.56 461.94C560.31 464.04 560.49 466.56 559.53 468.74C558.74 470.53 557.11 471.75 556.36 473.55C555.29 476.11 555.57 479.02 554.6 481.61C554.06 483.05 552.92 484.13 552.19 485.45C550.73 488.08 550.31 491.03 549.08 493.72C548.36 495.3 547.12 496.57 546.38 498.14C545.33 500.41 545.69 502.99 544.69 505.26C543.9 507.06 542.1 508.02 541.23 509.75C540.24 511.72 540.27 514.05 539.55 516.11C538.76 518.4 537.16 520.28 536.16 522.47C535.28 524.41 534.97 526.49 534.2 528.45C533.4 530.5 531.81 532.08 530.96 534.1C530.02 536.32 530.04 538.81 528.98 540.98C528.24 542.51 526.86 543.59 526.12 545.12C524.95 547.52 525.23 550.37 523.97 552.73C523.17 554.24 521.56 555.09 520.82 556.62C519.85 558.64 519.94 561.07 519.27 563.19C518.54 565.52 516.68 567.09 515.73 569.28C514.93 571.1 515.1 573.13 514.34 574.94C513.47 576.98 511.37 578.05 510.55 580.11C509.63 582.41 510.01 585.04 509.08 587.37C508.09 589.82 506.09 591.68 505.16 594.18C504.41 596.2 504.33 598.39 503.36 600.35C502.51 602.07 501.13 603.46 500.46 605.3C499.71 607.35 499.67 609.61 498.74 611.61C497.83 613.55 496.06 614.89 495.23 616.9C494.32 619.12 494.22 621.6 493.28 623.81C492.43 625.81 490.77 627.34 489.96 629.35C489.14 631.38 489.23 633.66 488.19 635.61C487.39 637.11 485.95 638.13 485.26 639.74C484.44 641.63 484.72 643.72 484.04 645.64C483.31 647.71 481.1 648.67 480.3 650.69C479.56 652.56 479.87 654.68 479.14 656.56C478.4 658.45 476.72 659.45 475.69 661.13C474.71 662.73 474.61 664.63 473.76 666.28C472.97 667.82 471.48 668.74 470.57 670.19C469.6 671.75 469.49 673.68 468.56 675.23C467.74 676.59 466.35 677.09 465.24 678.13C459.29 683.72 458.11 685.41 450.38 688.99C448.01 690.09 445.99 691.97 443.43 692.65C436.73 694.46 424.34 694.18 417.77 691.83C415.7 691.09 414.25 689.32 412.22 688.52C410.33 687.78 408.17 688.3 406.34 687.35C404.65 686.48 404.1 684.33 402.49 683.29C400.98 682.31 399.09 682.13 397.65 681.01C396.16 679.86 395.39 677.93 394.24 676.47C386.66 666.87 384.04 662.42 382.89 649.69C382.39 644.25 383.83 640.07 384.68 634.9C385.15 632.03 384.86 629.08 385.86 626.29C386.69 624 388.5 622.27 389.32 619.98C390.05 617.93 390.08 615.67 391.03 613.7C391.78 612.13 393.21 611.06 393.95 609.48C394.87 607.5 394.77 605.23 395.53 603.19C396.45 600.71 398.28 598.68 399.3 596.22C400.2 594.08 400.48 591.72 401.53 589.64C402.3 588.12 403.59 586.89 404.2 585.3C405.01 583.16 404.79 580.81 405.66 578.69C406.31 577.11 407.65 575.92 408.42 574.39C409.58 572.1 409.98 569.54 410.99 567.19C411.94 564.99 413.56 563.14 414.45 560.91C415.28 558.81 414.99 556.48 415.82 554.42C416.64 552.36 418.76 551.32 419.58 549.24C420.32 547.35 420.07 545.24 420.8 543.34C421.57 541.32 423.69 540.29 424.48 538.29C425.3 536.22 425.21 533.91 426.09 531.82C427.01 529.63 428.65 527.8 429.58 525.59C430.48 523.45 430.75 521.09 431.79 519.01C432.67 517.22 434.07 515.79 434.73 513.88C435.39 511.98 435.21 509.9 435.93 508.01C436.7 505.99 438.83 504.98 439.61 503C440.44 500.91 440.34 498.59 441.22 496.5C442.15 494.31 443.78 492.47 444.71 490.27C445.66 488.02 445.75 485.58 446.62 483.33C447.4 481.29 449.05 479.72 449.87 477.69C450.77 475.47 450.73 472.99 451.85 470.85C452.64 469.35 454.04 468.28 454.73 466.72C455.62 464.71 455.65 462.44 456.4 460.38C457.22 458.12 458.83 456.26 459.85 454.11C460.87 451.97 461.05 449.6 462.02 447.47C462.74 445.87 463.99 444.61 464.71 443.02C465.74 440.75 465.36 438.16 466.42 435.92C467.25 434.13 469.02 433.13 469.89 431.37C470.86 429.4 470.76 427.09 471.5 425.04C472.31 422.77 474.06 421.06 475.17 418.97C476.32 416.8 476.27 414.36 477.2 412.13C477.94 410.34 479.48 409.01 480.23 407.23C481.11 405.16 481 402.86 481.83 400.78C482.65 398.75 484.49 397.41 485.29 395.34C486.16 393.1 486.12 390.63 487.18 388.43C488.12 386.48 489.7 384.94 490.54 382.92C491.46 380.73 491.53 378.31 492.61 376.17C493.38 374.64 494.62 373.39 495.27 371.79C495.99 369.99 495.99 367.96 496.78 366.19C497.66 364.19 499.75 363.16 500.52 361.07C501.29 358.97 501.05 356.62 501.78 354.48C502.71 351.74 504.96 349.82 505.99 347.14C506.7 345.3 506.76 343.29 507.47 341.45C508.26 339.43 509.91 337.91 510.62 335.84C511.18 334.21 511.21 332.41 511.91 330.83C512.76 328.88 515 327.95 515.75 325.94C516.67 323.52 516.12 320.81 517.14 318.37C517.99 316.32 519.94 315.16 520.77 313.1C521.67 310.86 521.6 308.34 522.6 306.1C523.38 304.34 524.79 302.95 525.53 301.18C526.36 299.18 526.3 296.85 527.31 294.94C528.2 293.26 530.04 292.32 530.79 290.51C531.54 288.7 531.43 286.64 532.35 284.88C535.66 278.5 547.89 267.21 554.49 264.5C561.46 261.64 569.38 261.7 576.74 261.66C582.68 261.63 589.14 262.26 594.77 264.34C596.82 265.1 598.13 266.91 599.96 268.02C603.19 269.97 606.95 271.57 609.75 274.18C610.94 275.29 611.09 276.87 612.01 278.14C612.76 279.17 613.97 279.67 614.77 280.65C616.16 282.37 619.24 287.38 620.13 289.42C621.01 291.44 620.93 293.73 621.85 295.74C622.66 297.51 624.54 298.43 625.35 300.16C626.5 302.61 626.11 305.47 627.29 307.98C629.24 312.17 630.87 316.76 633.04 320.83C633.85 322.36 635.15 323.59 635.8 325.21C636.54 327.08 636.22 329.2 636.98 331.07C637.71 332.87 639.68 333.73 640.46 335.47C641.32 337.37 640.86 339.52 641.55 341.45C642.3 343.55 644.27 344.76 645.2 346.73C646.23 348.95 645.9 351.56 646.95 353.78C647.69 355.37 649.2 356.35 649.95 357.93C650.98 360.09 650.97 362.63 651.91 364.84C652.76 366.84 654.53 368.18 655.44 370.1C656.47 372.28 656.44 374.8 657.38 377.02C659.88 382.89 663.26 388.45 665.8 394.31C666.77 396.54 666.65 399.07 667.67 401.27C668.4 402.81 669.86 403.86 670.57 405.4C671.63 407.72 671.3 410.35 672.22 412.71C672.93 414.52 674.61 415.69 675.47 417.4C676.43 419.32 676.41 421.57 677.26 423.54C678.03 425.33 679.4 426.73 680.31 428.43C681.74 431.13 681.3 434.14 682.38 436.89C683.21 439.02 685.32 440.07 686.2 442.15C686.98 444 686.73 446.16 687.32 448.09C689.71 455.84 696.47 465.74 703.59 469.79C704.23 470.16 720.11 473.88 721.03 473.88C724.31 473.87 727.49 472.32 730.78 472.12C738.98 471.65 747.34 472.11 755.56 472.11C798.34 472.11 841.13 472.11 883.92 472.11C898.08 472.11 912.25 472.11 926.41 472.11C931.93 472.11 938.76 469.94 940.28 476.7C943 488.86 941.41 502.36 941.41 514.77C941.41 519.31 941.85 524.05 941.46 528.57C941 534.01 939.91 539.44 939.52 544.9C939.26 548.43 939.74 551.97 939.21 555.49C938.24 562.08 935.69 568.49 934.6 574.97C933.85 579.44 934.41 584.05 933.45 588.56C932.62 592.43 930.52 595.97 929.75 599.85C929.12 603 929.47 606.25 928.4 609.34C927.65 611.5 926.26 613.22 925.65 615.48C924.55 619.58 924.52 623.96 923.15 627.97C922.28 630.5 920.41 632.53 919.56 635.04C918.89 637.01 919.2 639.15 918.56 641.13C918.04 642.77 916.78 644.15 916.12 645.75C914.85 648.78 914.41 652.1 913.14 655.12C912.2 657.35 910.45 659.07 909.66 661.39C908.81 663.92 908.76 666.67 907.75 669.17C906.85 671.42 905.07 673.14 904.3 675.47C903.78 677.06 903.76 678.82 903.06 680.34C902.33 681.92 900.89 682.99 900.05 684.52C899.03 686.38 898.89 688.52 898.01 690.43C897.2 692.18 895.58 693.39 894.73 695.13C893.9 696.83 893.78 698.76 892.99 700.47C892.18 702.23 890.58 703.43 889.71 705.16C888.87 706.84 888.84 708.79 888.01 710.46C887.24 712.02 885.75 712.96 884.85 714.43C883.87 716.01 883.7 717.88 882.86 719.51C882.16 720.87 880.87 721.68 880.05 722.95C879.06 724.48 878.99 726.4 877.94 727.9C877.09 729.1 875.71 729.78 874.86 731C873.81 732.5 873.58 734.36 872.73 735.95C871.41 738.44 869.45 741.13 867.85 743.46C862.63 751.05 857.68 758.7 852.62 766.35C851.8 767.6 850.4 768.21 849.54 769.43C848.78 770.51 848.56 771.89 847.73 772.94C845.46 775.83 842.31 778.21 839.9 781.01C836.91 784.49 834.95 789.03 831.78 792.39C830.9 793.32 829.66 793.8 828.76 794.7C824.84 798.62 821.78 803.68 817.93 807.73C816.89 808.82 815.47 809.37 814.42 810.43C809.46 815.42 804.51 820.56 799.41 825.52C795.26 829.55 791.6 834.34 787.22 838.11C786.05 839.11 784.51 839.44 783.34 840.45C777.16 845.78 770.7 850.81 764.27 855.91C761.75 857.92 757.71 862.12 755.3 863.71C753.99 864.58 752.36 864.8 751.06 865.7C747.8 867.95 744.3 872.29 740.92 874.13C739.47 874.93 737.71 874.85 736.25 875.65C734.73 876.47 733.89 878.05 732.45 878.99C728.4 881.62 724.08 883.5 719.96 885.93C715.97 888.27 712.51 891.7 708.51 893.98C706.44 895.16 703.89 894.96 701.85 896.19C697.75 898.67 693.8 902.04 689.44 904.13C687.54 905.04 685.38 905.13 683.52 906.15C682.01 906.97 680.93 908.37 679.37 909.11C677.43 910.02 675.2 910.01 673.23 910.9C670.81 911.99 668.96 913.97 666.38 914.77C664.25 915.43 661.87 915.14 659.81 916.02C657.98 916.8 657.06 918.69 655.31 919.53C653.46 920.41 651.32 920.21 649.38 920.74C647.03 921.37 645.14 923.03 642.91 923.92C640.41 924.92 637.69 925.02 635.15 925.88C632.37 926.83 630.29 928.99 627.46 929.85C624.64 930.71 621.67 930.14 618.86 930.89C616.29 931.58 614.25 933.54 611.73 934.37C607.67 935.71 603.21 935.71 599.06 936.9C596.86 937.53 595.05 938.96 592.87 939.56C589.88 940.38 586.64 940.05 583.61 940.67C577.66 941.89 571.86 943.85 565.91 945.1C560.49 946.23 554.81 946.57 549.33 947.44C543.96 948.3 538.84 950.2 533.36 950.66C530.42 950.9 527.46 950.39 524.51 950.66C518.9 951.18 513.34 952.32 507.69 952.61C503 952.86 498.2 952.16 493.52 952.6C491.31 952.81 489.51 954.12 487.33 954.42C481.49 955.23 469.33 955.16 463.43 954.49C460.92 954.2 458.9 952.74 456.34 952.57C451.94 952.28 447.48 952.83 443.07 952.64C436.84 952.36 430.68 951.13 424.48 950.67C420.71 950.4 416.98 950.8 413.22 950.35C406.13 949.52 399.46 946.91 392.42 945.78C390.13 945.41 387.82 945.79 385.52 945.45C382.43 944.99 379.76 943.2 376.72 942.55C371.29 941.37 365.53 941.14 360.15 939.75C357.06 938.95 354.35 937.09 351.3 936.24C349.1 935.63 346.77 935.83 344.61 935.06C342.72 934.39 341.16 933.12 339.23 932.54C335.06 931.28 330.46 930.8 326.41 929.24C324.61 928.55 323.34 926.93 321.55 926.24C319.12 925.29 316.45 925.75 313.98 924.87C311.53 923.99 309.62 922.04 307.18 921.11C305.05 920.31 302.7 920.54 300.6 919.71C298.76 918.98 297.81 917.13 296.07 916.23C294.06 915.2 291.67 915.64 289.6 914.78C287.95 914.11 287.11 912.57 285.64 911.67C283.53 910.38 280.92 910.53 278.62 909.74C276.17 908.89 274.4 906.85 272.09 905.73C270.44 904.93 268.53 904.74 266.95 903.83C265.46 902.98 264.62 901.4 263.11 900.58C261.68 899.81 259.98 899.67 258.54 898.9C256.82 897.97 255.72 896.34 253.88 895.57C252.38 894.94 250.71 894.89 249.29 894.04C247.82 893.16 246.93 891.63 245.46 890.75C243.69 889.69 241.55 889.52 239.8 888.42C236.24 886.2 233.07 883.11 229.52 881.01C227.94 880.07 225.99 880.05 224.46 879.05C221.03 876.82 218.03 873.52 214.68 871.07C208.53 866.56 201.75 862.83 195.7 858.18C178.51 844.93 162.59 830.11 147.24 814.59C143 810.29 138.33 806.32 134.27 801.87C132.66 800.11 132.12 797.67 130.48 795.93C128.2 793.51 125.55 791.46 123.38 788.88C122.42 787.73 121.91 786.28 120.83 785.22C119.92 784.33 118.64 783.89 117.8 782.91C115.05 779.7 113.21 775.71 110.78 772.23C108.66 769.2 105.75 766.58 103.5 763.61C102.56 762.38 102.19 760.86 101.29 759.61C100.41 758.42 98.92 757.86 98.1 756.65C97.05 755.1 97.09 753.08 96.1 751.5C95.2 750.05 93.51 749.39 92.57 747.98C91.81 746.85 91.68 745.42 90.93 744.29C90.1 743.03 88.61 742.5 87.79 741.21C86.93 739.84 86.95 738.1 86.18 736.67C85.25 734.94 83.29 734.21 82.31 732.54C81.23 730.69 81.48 728.41 80.31 726.59C77.95 722.94 74.61 719.55 72.58 715.7C71.71 714.04 71.67 712.09 70.86 710.4C70.02 708.65 68.41 707.46 67.59 705.73C66.67 703.83 66.56 701.66 65.53 699.78C64.71 698.28 63.25 697.19 62.57 695.6C61.81 693.84 61.9 691.82 61.16 690.04C60.07 687.43 57.77 685.51 56.96 682.76C56.36 680.77 56.57 678.66 56.02 676.69C54.47 671.14 49.26 666.87 50.54 659.95Z" fill="#ffffff" fill-rule="evenodd" stroke="none"  stroke-linejoin="round"/>

</svg>
